<?xml version="1.0" encoding="UTF-8" standalone="no"?>
<!DOCTYPE svg PUBLIC "-//W3C//DTD SVG 1.1//EN" "http://www.w3.org/Graphics/SVG/1.1/DTD/svg11.dtd">
<svg width="100%" height="100%" viewBox="0 0 660 660" version="1.1" xmlns="http://www.w3.org/2000/svg" xmlns:xlink="http://www.w3.org/1999/xlink" xml:space="preserve" xmlns:serif="http://www.serif.com/" style="fill-rule:evenodd;clip-rule:evenodd;stroke-linejoin:round;stroke-miterlimit:2;">
    <g id="root">
        <g transform="matrix(1,0,0,1,0,0.216)">
            <rect x="0" y="0" width="659.785" height="659.784" style="fill:rgb(49,48,51);"/>
        </g>
        <g transform="matrix(62.0167,-56.5317,56.5317,62.0167,83.5318,106.991)">
            <circle cx="0.5" cy="-0" r="0.5" style="fill:url(#_Linear1);"/>
        </g>
        <g transform="matrix(1.05853,0,0,1.03349,-0.940529,-3.03103)">
            <path d="M484.173,100.328L484.708,102.075L486.455,102.612L484.708,103.149L484.173,104.895L483.636,103.149L481.889,102.612L483.636,102.075L484.173,100.328ZM305.493,137.435L306.03,139.181L307.777,139.718L306.03,140.255L305.493,142.001L304.958,140.255L303.211,139.718L304.958,139.181L305.493,137.435ZM216.724,39.246L217.999,43.394L222.148,44.669L217.999,45.944L216.724,50.093L215.449,45.944L211.302,44.669L215.449,43.394L216.724,39.246ZM557.244,428.571L558.853,433.811L564.094,435.421L558.853,437.032L557.244,442.272L555.635,437.032L550.393,435.421L555.635,433.811L557.244,428.571ZM549.251,537.034L551.935,545.768L560.668,548.452L551.935,551.135L549.251,559.869L546.568,551.135L537.834,548.452L546.568,545.768L549.251,537.034ZM288.94,569.002L290.549,574.243L295.79,575.853L290.549,577.463L288.94,582.703L287.331,577.463L282.09,575.853L287.331,574.243L288.94,569.002ZM118.252,604.396L121.07,613.567L130.24,616.385L121.07,619.201L118.252,628.372L115.436,619.201L106.264,616.385L115.436,613.567L118.252,604.396ZM22.919,184.243L24.529,189.484L29.77,191.094L24.529,192.704L22.919,197.945L21.31,192.704L16.069,191.094L21.31,189.484L22.919,184.243ZM544.686,33.536L547.1,41.398L554.96,43.813L547.1,46.227L544.686,54.088L542.27,46.227L534.409,43.813L542.27,41.398L544.686,33.536ZM586.928,312.117L589.879,321.724L599.485,324.676L589.879,327.627L586.928,337.234L583.977,327.627L574.369,324.676L583.977,321.724L586.928,312.117ZM407.68,575.853L410.897,586.334L421.379,589.554L410.897,592.773L407.68,603.254L404.459,592.773L393.979,589.554L404.459,586.334L407.68,575.853ZM48.037,538.178L49.916,544.291L56.029,546.168L49.916,548.047L48.037,554.16L46.159,548.047L40.045,546.168L46.159,544.291L48.037,538.178ZM363.151,72.357L364.493,76.723L368.86,78.065L364.493,79.407L363.151,83.774L361.81,79.407L357.443,78.065L361.81,76.723L363.151,72.357Z" style="fill:rgb(250,201,50);fill-rule:nonzero;"/>
        </g>
    </g>
    <defs>
        <linearGradient id="_Linear1" x1="0" y1="0" x2="1" y2="0" gradientUnits="userSpaceOnUse" gradientTransform="matrix(1,-2.71528e-06,-2.71528e-06,-1,-2.27372e-12,-1.67478e-06)"><stop offset="0" style="stop-color:rgb(49,48,51);stop-opacity:1"/><stop offset="1" style="stop-color:rgb(245,121,59);stop-opacity:1"/></linearGradient>
    </defs>
</svg>
