<?xml version="1.0" encoding="UTF-8" standalone="no"?>
<!DOCTYPE svg PUBLIC "-//W3C//DTD SVG 1.1//EN" "http://www.w3.org/Graphics/SVG/1.1/DTD/svg11.dtd">
<svg width="100%" height="100%" viewBox="0 0 660 660" version="1.1" xmlns="http://www.w3.org/2000/svg" xmlns:xlink="http://www.w3.org/1999/xlink" xml:space="preserve" xmlns:serif="http://www.serif.com/" style="fill-rule:evenodd;clip-rule:evenodd;stroke-linejoin:round;stroke-miterlimit:2;">
    <g id="publicdomainvectors.org">
        <g transform="matrix(1,0,0,1,0,0.216)">
            <rect x="0" y="0" width="659.785" height="659.784" style="fill:rgb(49,48,51);"/>
        </g>
        <g transform="matrix(1,0,0,1,0,-304.389)">
            <path d="M224.702,444.573C224.635,445.009 224.575,445.45 224.521,445.887C224.071,449.423 223.007,452.768 221.271,455.931C219.452,459.245 216.886,462.396 213.492,465.37C206.801,471.236 199.268,477.84 190.781,485.28C181.118,493.752 169.983,503.51 157.072,514.829C150.674,520.438 142.702,517.41 138.089,511.44C133.481,505.47 132.57,496.996 139.617,492.224C153.833,482.596 166.09,474.294 176.73,467.086C186.076,460.758 194.371,455.14 201.739,450.149C205.474,447.619 209.172,445.934 212.84,445.012C216.337,444.133 219.844,443.951 223.38,444.408C223.813,444.465 224.257,444.519 224.702,444.572L224.702,444.573Z" style="fill:rgb(169,93,56);fill-rule:nonzero;"/>
        </g>
        <g transform="matrix(1,0,0,1,0,-307.527)">
            <path d="M155.438,471.62C160.965,472.379 166.298,473.111 171.425,473.819C166.77,476.97 161.853,480.301 156.624,483.844C151.062,487.611 145.169,491.601 138.814,495.907C131.857,495.555 124.595,495.177 117,494.781C124.502,490.263 131.53,486.027 138.116,482.058C144.231,478.374 150.012,474.891 155.438,471.62" style="fill:rgb(240,154,54);fill-rule:nonzero;"/>
        </g>
        <g transform="matrix(1,0,0,1,0,-242.405)">
            <path d="M184.052,443.554C184.708,438.004 185.349,432.66 185.962,427.52C181.735,431.226 177.268,435.141 172.516,439.305C167.465,443.732 162.115,448.424 156.341,453.484C154.922,460.301 153.45,467.425 151.922,474.885C158.192,468.77 164.068,463.041 169.574,457.674C174.686,452.689 179.518,447.977 184.052,443.554" style="fill:rgb(240,154,54);fill-rule:nonzero;"/>
        </g>
        <g transform="matrix(250.653,-161.151,161.151,250.653,249.671,382.189)">
            <path d="M0.334,-0.5C0.61,-0.5 0.834,-0.276 0.834,0C0.834,0.276 0.61,0.5 0.334,0.5C0.241,0.5 0.166,0.276 0.166,0C0.166,-0.276 0.241,-0.5 0.334,-0.5Z" style="fill:url(#_Linear1);fill-rule:nonzero;"/>
        </g>
        <g transform="matrix(-125.327,80.5759,-80.5759,-125.327,333.461,328.319)">
            <path d="M-0,-1C0.552,-1 1,-0.552 1,-0C1,0.552 0.552,1 -0,1C0.186,1 0.337,0.552 0.337,-0C0.337,-0.552 0.186,-1 -0,-1Z" style="fill:url(#_Linear2);fill-rule:nonzero;"/>
        </g>
        <g transform="matrix(756.989,-486.684,486.684,756.989,-46.9073,576.59)">
            <path d="M0.65,-0.083C0.759,-0.069 0.834,-0.039 0.834,-0.004C0.834,0.045 0.685,0.085 0.5,0.085C0.315,0.085 0.166,0.045 0.166,-0.004C0.166,-0.04 0.246,-0.071 0.36,-0.085C0.355,-0.076 0.351,-0.066 0.348,-0.056C0.289,-0.044 0.252,-0.025 0.252,-0.004C0.252,0.032 0.363,0.062 0.5,0.062C0.637,0.062 0.748,0.032 0.748,-0.004C0.748,-0.024 0.715,-0.042 0.662,-0.054C0.659,-0.064 0.655,-0.074 0.65,-0.083Z" style="fill:url(#_Linear3);fill-rule:nonzero;"/>
        </g>
        <g opacity="0.3">
            <g transform="matrix(1,0,0,1,0,190.044)">
                <path d="M484.013,469.956L482.872,444.842C477.521,327.141 383.315,232.936 265.615,227.584C205.97,224.873 151.361,193.344 119.191,143.044C106.471,123.161 102.706,98.84 108.814,76.039C113.322,59.218 123.201,44.722 136.023,33.375L149.791,21.19C155.123,16.473 142.724,0 136.93,4.137L120.947,15.554C51.856,64.906 27.376,156.268 62.534,233.552C84.197,281.171 122.365,319.338 169.985,341.002C193.182,351.555 210.443,371.931 217.04,396.549C223.637,421.165 218.876,447.445 204.062,468.184L484.013,469.956Z" style="fill:rgb(240,152,108);fill-rule:nonzero;"/>
            </g>
        </g>
        <g transform="matrix(62.0167,-56.5317,56.5317,62.0167,83.5318,106.991)">
            <circle cx="0.5" cy="-0" r="0.5" style="fill:url(#_Linear4);"/>
        </g>
        <g transform="matrix(1,0,0,1,0,-1.908)">
            <path d="M484.173,100.328L484.708,102.075L486.455,102.612L484.708,103.149L484.173,104.895L483.636,103.149L481.889,102.612L483.636,102.075L484.173,100.328ZM305.493,137.435L306.03,139.181L307.777,139.718L306.03,140.255L305.493,142.001L304.958,140.255L303.211,139.718L304.958,139.181L305.493,137.435ZM216.724,39.246L217.999,43.394L222.148,44.669L217.999,45.944L216.724,50.093L215.449,45.944L211.302,44.669L215.449,43.394L216.724,39.246ZM557.244,428.571L558.853,433.811L564.094,435.421L558.853,437.032L557.244,442.272L555.635,437.032L550.393,435.421L555.635,433.811L557.244,428.571ZM549.251,537.034L551.935,545.768L560.668,548.452L551.935,551.135L549.251,559.869L546.568,551.135L537.834,548.452L546.568,545.768L549.251,537.034ZM288.94,569.002L290.549,574.243L295.79,575.853L290.549,577.463L288.94,582.703L287.331,577.463L282.09,575.853L287.331,574.243L288.94,569.002ZM118.252,604.396L121.07,613.567L130.24,616.385L121.07,619.201L118.252,628.372L115.436,619.201L106.264,616.385L115.436,613.567L118.252,604.396ZM22.919,184.243L24.529,189.484L29.77,191.094L24.529,192.704L22.919,197.945L21.31,192.704L16.069,191.094L21.31,189.484L22.919,184.243ZM544.686,33.536L547.1,41.398L554.96,43.813L547.1,46.227L544.686,54.088L542.27,46.227L534.409,43.813L542.27,41.398L544.686,33.536ZM586.928,312.117L589.879,321.724L599.485,324.676L589.879,327.627L586.928,337.234L583.977,327.627L574.369,324.676L583.977,321.724L586.928,312.117ZM407.68,575.853L410.897,586.334L421.379,589.554L410.897,592.773L407.68,603.254L404.459,592.773L393.979,589.554L404.459,586.334L407.68,575.853ZM48.037,538.178L49.916,544.291L56.029,546.168L49.916,548.047L48.037,554.16L46.159,548.047L40.045,546.168L46.159,544.291L48.037,538.178ZM363.151,72.357L364.493,76.723L368.86,78.065L364.493,79.407L363.151,83.774L361.81,79.407L357.443,78.065L361.81,76.723L363.151,72.357Z" style="fill:rgb(250,201,50);fill-rule:nonzero;"/>
        </g>
    </g>
    <defs>
        <linearGradient id="_Linear1" x1="0" y1="0" x2="1" y2="0" gradientUnits="userSpaceOnUse" gradientTransform="matrix(1,2.02073e-06,2.02073e-06,-1,-3.17661e-13,3.14405e-07)"><stop offset="0" style="stop-color:rgb(231,116,58);stop-opacity:1"/><stop offset="1" style="stop-color:rgb(255,221,48);stop-opacity:1"/></linearGradient>
        <linearGradient id="_Linear2" x1="0" y1="0" x2="1" y2="0" gradientUnits="userSpaceOnUse" gradientTransform="matrix(-1,-3.68676e-07,-3.68676e-07,1,0.99999,1.84336e-07)"><stop offset="0" style="stop-color:rgb(49,48,51);stop-opacity:1"/><stop offset="1" style="stop-color:rgb(245,121,59);stop-opacity:1"/></linearGradient>
        <linearGradient id="_Linear3" x1="0" y1="0" x2="1" y2="0" gradientUnits="userSpaceOnUse" gradientTransform="matrix(1,5.55112e-17,5.55112e-17,-1,0,1.21762e-06)"><stop offset="0" style="stop-color:rgb(59,52,51);stop-opacity:1"/><stop offset="1" style="stop-color:rgb(222,112,58);stop-opacity:1"/></linearGradient>
        <linearGradient id="_Linear4" x1="0" y1="0" x2="1" y2="0" gradientUnits="userSpaceOnUse" gradientTransform="matrix(1,-2.71528e-06,-2.71528e-06,-1,-2.27372e-12,-1.67478e-06)"><stop offset="0" style="stop-color:rgb(49,48,51);stop-opacity:1"/><stop offset="1" style="stop-color:rgb(245,121,59);stop-opacity:1"/></linearGradient>
    </defs>
</svg>
